{
  "version": "1.1.6",
  "modules": [
    {
      "id": 2,
      "plugin": "Fundamental",
      "version": "1.4.0",
      "model": "VCMixer",
      "params": [
        {
          "id": 0,
          "value": 1.18022943
        },
        {
          "id": 1,
          "value": 1.41421354
        },
        {
          "id": 2,
          "value": 1.41421354
        },
        {
          "id": 3,
          "value": 0.537862599
        },
        {
          "id": 4,
          "value": 0.61802417
        }
      ],
      "pos": [
        72,
        0
      ]
    },
    {
      "id": 3,
      "plugin": "Fundamental",
      "version": "1.4.0",
      "model": "VCO",
      "params": [
        {
          "id": 0,
          "value": 1.0
        },
        {
          "id": 1,
          "value": 1.0
        },
        {
          "id": 2,
          "value": 36.2856216
        },
        {
          "id": 3,
          "value": -0.206633687
        },
        {
          "id": 4,
          "value": 0.0202454925
        },
        {
          "id": 5,
          "value": 0.522981644
        },
        {
          "id": 6,
          "value": 0.0510058999
        }
      ],
      "leftModuleId": 11,
      "rightModuleId": 4,
      "pos": [
        30,
        0
      ]
    },
    {
      "id": 4,
      "plugin": "Fundamental",
      "version": "1.4.0",
      "model": "VCF",
      "params": [
        {
          "id": 0,
          "value": 0.356134474
        },
        {
          "id": 1,
          "value": 0.985336363
        },
        {
          "id": 2,
          "value": 0.568557203
        },
        {
          "id": 3,
          "value": 0.528145075
        },
        {
          "id": 4,
          "value": 0.196490586
        }
      ],
      "leftModuleId": 3,
      "rightModuleId": 6,
      "pos": [
        40,
        0
      ]
    },
    {
      "id": 6,
      "plugin": "Fundamental",
      "version": "1.4.0",
      "model": "ADSR",
      "params": [
        {
          "id": 0,
          "value": 0.532845736
        },
        {
          "id": 1,
          "value": 0.0533799529
        },
        {
          "id": 2,
          "value": 0.157188416
        },
        {
          "id": 3,
          "value": 0.84152925
        }
      ],
      "leftModuleId": 4,
      "pos": [
        48,
        0
      ]
    },
    {
      "id": 7,
      "plugin": "Fundamental",
      "version": "1.4.0",
      "model": "Scope",
      "params": [
        {
          "id": 0,
          "value": -1.0
        },
        {
          "id": 1,
          "value": 0.0
        },
        {
          "id": 2,
          "value": -2.0
        },
        {
          "id": 3,
          "value": 0.0
        },
        {
          "id": 4,
          "value": 16.0
        },
        {
          "id": 5,
          "value": 0.0
        },
        {
          "id": 6,
          "value": 0.0
        },
        {
          "id": 7,
          "value": 0.0
        }
      ],
      "data": {
        "lissajous": 0,
        "external": 0
      },
      "pos": [
        52,
        2
      ]
    },
    {
      "id": 1,
      "plugin": "Core",
      "version": "1.1.6",
      "model": "AudioInterface",
      "params": [],
      "data": {
        "audio": {
          "driver": 5,
          "offset": 0,
          "maxChannels": 8,
          "sampleRate": 8000,
          "blockSize": 256
        }
      },
      "pos": [
        84,
        0
      ]
    },
    {
      "id": 8,
      "plugin": "VCV-Recorder",
      "version": "1.1.0",
      "model": "Recorder",
      "params": [
        {
          "id": 0,
          "value": 1.9620024
        },
        {
          "id": 1,
          "value": 0.0
        }
      ],
      "data": {
        "format": "wav",
        "path": "/Users/avereddeck/Desktop/Spring 2021/sound assignment.wav",
        "incrementPath": true,
        "sampleRate": 44100,
        "depth": 16,
        "bitRate": 256000,
        "videoBitRate": 2048000
      },
      "pos": [
        107,
        0
      ]
    },
    {
      "id": 9,
      "plugin": "Fundamental",
      "version": "1.4.0",
      "model": "SEQ3",
      "params": [
        {
          "id": 0,
          "value": 3.59242511
        },
        {
          "id": 1,
          "value": 0.0
        },
        {
          "id": 2,
          "value": 0.0
        },
        {
          "id": 3,
          "value": 6.0
        },
        {
          "id": 4,
          "value": 7.78088856
        },
        {
          "id": 5,
          "value": 0.488029718
        },
        {
          "id": 6,
          "value": 3.64449787
        },
        {
          "id": 7,
          "value": 8.16812801
        },
        {
          "id": 8,
          "value": 6.97580767
        },
        {
          "id": 9,
          "value": 2.21397686
        },
        {
          "id": 10,
          "value": 1.30921185
        },
        {
          "id": 11,
          "value": 0.0589168072
        },
        {
          "id": 12,
          "value": 9.46853256
        },
        {
          "id": 13,
          "value": 2.57868409
        },
        {
          "id": 14,
          "value": 0.957054496
        },
        {
          "id": 15,
          "value": 4.94809103
        },
        {
          "id": 16,
          "value": 5.85960627
        },
        {
          "id": 17,
          "value": 7.92119741
        },
        {
          "id": 18,
          "value": 4.71280813
        },
        {
          "id": 19,
          "value": 2.80443382
        },
        {
          "id": 20,
          "value": 7.79638672
        },
        {
          "id": 21,
          "value": 5.84412575
        },
        {
          "id": 22,
          "value": 5.87716627
        },
        {
          "id": 23,
          "value": 1.08045757
        },
        {
          "id": 24,
          "value": 3.5088551
        },
        {
          "id": 25,
          "value": 2.04186392
        },
        {
          "id": 26,
          "value": 5.10852528
        },
        {
          "id": 27,
          "value": 1.19073629
        },
        {
          "id": 28,
          "value": 0.0
        },
        {
          "id": 29,
          "value": 0.0
        },
        {
          "id": 30,
          "value": 0.0
        },
        {
          "id": 31,
          "value": 0.0
        },
        {
          "id": 32,
          "value": 0.0
        },
        {
          "id": 33,
          "value": 0.0
        },
        {
          "id": 34,
          "value": 0.0
        },
        {
          "id": 35,
          "value": 0.0
        }
      ],
      "data": {
        "running": true,
        "gates": [
          0,
          1,
          1,
          0,
          0,
          1,
          1,
          0
        ]
      },
      "pos": [
        0,
        0
      ]
    },
    {
      "id": 11,
      "plugin": "JW-Modules",
      "version": "1.0.24",
      "model": "Quantizer",
      "params": [
        {
          "id": 0,
          "value": 2.0
        },
        {
          "id": 1,
          "value": 11.0
        },
        {
          "id": 2,
          "value": 0.0
        }
      ],
      "rightModuleId": 3,
      "data": {},
      "pos": [
        26,
        0
      ]
    },
    {
      "id": 12,
      "plugin": "Bogaudio",
      "version": "1.1.37",
      "model": "Bogaudio-Slew",
      "params": [
        {
          "id": 0,
          "value": 0.658230066
        },
        {
          "id": 1,
          "value": 0.0
        },
        {
          "id": 2,
          "value": 0.316229999
        },
        {
          "id": 3,
          "value": 0.0
        },
        {
          "id": 4,
          "value": 0.0
        }
      ],
      "leftModuleId": 16,
      "rightModuleId": 13,
      "data": {},
      "pos": [
        10,
        2
      ]
    },
    {
      "id": 13,
      "plugin": "JW-Modules",
      "version": "1.0.24",
      "model": "SimpleClock",
      "params": [
        {
          "id": 0,
          "value": 1.0
        },
        {
          "id": 1,
          "value": 0.0
        },
        {
          "id": 2,
          "value": -2.0
        },
        {
          "id": 3,
          "value": 0.0
        }
      ],
      "leftModuleId": 12,
      "data": {
        "clockMult": 1,
        "running": true
      },
      "pos": [
        13,
        2
      ]
    },
    {
      "id": 14,
      "plugin": "Fundamental",
      "version": "1.4.0",
      "model": "Delay",
      "params": [
        {
          "id": 0,
          "value": 0.5
        },
        {
          "id": 1,
          "value": 0.313999921
        },
        {
          "id": 2,
          "value": 0.0
        },
        {
          "id": 3,
          "value": 0.0
        }
      ],
      "rightModuleId": 20,
      "pos": [
        18,
        1
      ]
    },
    {
      "id": 15,
      "plugin": "Core",
      "version": "1.1.6",
      "model": "MIDIToCVInterface",
      "params": [],
      "leftModuleId": 19,
      "data": {
        "channels": 1,
        "polyMode": 0,
        "clockDivision": 24,
        "lastPitch": 8192,
        "lastMod": 0,
        "midi": {
          "driver": 1,
          "channel": -1
        }
      },
      "pos": [
        41,
        2
      ]
    },
    {
      "id": 16,
      "plugin": "HetrickCV",
      "version": "1.0.0",
      "model": "LogicCombine",
      "params": [],
      "rightModuleId": 12,
      "pos": [
        2,
        2
      ]
    },
    {
      "id": 17,
      "plugin": "Fundamental",
      "version": "1.4.0",
      "model": "Noise",
      "params": [],
      "pos": [
        67,
        1
      ]
    },
    {
      "id": 18,
      "plugin": "Bogaudio",
      "version": "1.1.37",
      "model": "Bogaudio-AD",
      "params": [
        {
          "id": 0,
          "value": 0.141421005
        },
        {
          "id": 1,
          "value": 0.316229999
        },
        {
          "id": 2,
          "value": 0.0
        },
        {
          "id": 3,
          "value": 0.0
        },
        {
          "id": 4,
          "value": 1.0
        }
      ],
      "data": {
        "invert": 1.0
      },
      "pos": [
        62,
        1
      ]
    },
    {
      "id": 19,
      "plugin": "Bogaudio",
      "version": "1.1.37",
      "model": "Bogaudio-AD",
      "params": [
        {
          "id": 0,
          "value": 0.141421005
        },
        {
          "id": 1,
          "value": 0.316229999
        },
        {
          "id": 2,
          "value": 0.0
        },
        {
          "id": 3,
          "value": 0.0
        },
        {
          "id": 4,
          "value": 1.0
        }
      ],
      "rightModuleId": 15,
      "data": {
        "invert": 1.0
      },
      "pos": [
        38,
        2
      ]
    },
    {
      "id": 20,
      "plugin": "JW-Modules",
      "version": "1.0.24",
      "model": "Quantizer",
      "params": [
        {
          "id": 0,
          "value": 0.0
        },
        {
          "id": 1,
          "value": 11.0
        },
        {
          "id": 2,
          "value": 0.0
        }
      ],
      "leftModuleId": 14,
      "rightModuleId": 21,
      "data": {},
      "pos": [
        26,
        1
      ]
    },
    {
      "id": 21,
      "plugin": "Fundamental",
      "version": "1.4.0",
      "model": "VCO",
      "params": [
        {
          "id": 0,
          "value": 1.0
        },
        {
          "id": 1,
          "value": 1.0
        },
        {
          "id": 2,
          "value": 3.34799886
        },
        {
          "id": 3,
          "value": -0.210000038
        },
        {
          "id": 4,
          "value": 0.11550004
        },
        {
          "id": 5,
          "value": 0.99000001
        },
        {
          "id": 6,
          "value": 0.0
        }
      ],
      "leftModuleId": 20,
      "rightModuleId": 22,
      "pos": [
        30,
        1
      ]
    },
    {
      "id": 22,
      "plugin": "Fundamental",
      "version": "1.4.0",
      "model": "VCF",
      "params": [
        {
          "id": 0,
          "value": 0.10818398
        },
        {
          "id": 1,
          "value": 0.208451807
        },
        {
          "id": 2,
          "value": 0.361985207
        },
        {
          "id": 3,
          "value": -0.993906856
        },
        {
          "id": 4,
          "value": 0.502299547
        }
      ],
      "leftModuleId": 21,
      "rightModuleId": 23,
      "pos": [
        40,
        1
      ]
    },
    {
      "id": 23,
      "plugin": "Fundamental",
      "version": "1.4.0",
      "model": "ADSR",
      "params": [
        {
          "id": 0,
          "value": 0.0195000004
        },
        {
          "id": 1,
          "value": 0.128000244
        },
        {
          "id": 2,
          "value": 0.192499921
        },
        {
          "id": 3,
          "value": 0.0
        }
      ],
      "leftModuleId": 22,
      "pos": [
        48,
        1
      ]
    }
  ],
  "cables": [
    {
      "id": 67,
      "outputModuleId": 9,
      "outputId": 1,
      "inputModuleId": 11,
      "inputId": 2,
      "color": "#0c8e15"
    },
    {
      "id": 68,
      "outputModuleId": 11,
      "outputId": 0,
      "inputModuleId": 3,
      "inputId": 0,
      "color": "#c91847"
    },
    {
      "id": 70,
      "outputModuleId": 6,
      "outputId": 0,
      "inputModuleId": 4,
      "inputId": 0,
      "color": "#c9b70e"
    },
    {
      "id": 71,
      "outputModuleId": 4,
      "outputId": 0,
      "inputModuleId": 2,
      "inputId": 1,
      "color": "#0c8e15"
    },
    {
      "id": 72,
      "outputModuleId": 6,
      "outputId": 0,
      "inputModuleId": 2,
      "inputId": 5,
      "color": "#c91847"
    },
    {
      "id": 73,
      "outputModuleId": 2,
      "outputId": 0,
      "inputModuleId": 1,
      "inputId": 0,
      "color": "#0986ad"
    },
    {
      "id": 75,
      "outputModuleId": 9,
      "outputId": 2,
      "inputModuleId": 20,
      "inputId": 2,
      "color": "#0c8e15"
    },
    {
      "id": 76,
      "outputModuleId": 20,
      "outputId": 0,
      "inputModuleId": 21,
      "inputId": 0,
      "color": "#c91847"
    },
    {
      "id": 77,
      "outputModuleId": 21,
      "outputId": 3,
      "inputModuleId": 22,
      "inputId": 3,
      "color": "#0986ad"
    },
    {
      "id": 78,
      "outputModuleId": 23,
      "outputId": 0,
      "inputModuleId": 22,
      "inputId": 0,
      "color": "#c9b70e"
    },
    {
      "id": 79,
      "outputModuleId": 22,
      "outputId": 0,
      "inputModuleId": 2,
      "inputId": 2,
      "color": "#0c8e15"
    },
    {
      "id": 80,
      "outputModuleId": 23,
      "outputId": 0,
      "inputModuleId": 2,
      "inputId": 6,
      "color": "#c91847"
    },
    {
      "id": 81,
      "outputModuleId": 9,
      "outputId": 0,
      "inputModuleId": 6,
      "inputId": 4,
      "color": "#c9b70e"
    },
    {
      "id": 83,
      "outputModuleId": 3,
      "outputId": 3,
      "inputModuleId": 4,
      "inputId": 3,
      "color": "#c91847"
    },
    {
      "id": 84,
      "outputModuleId": 2,
      "outputId": 0,
      "inputModuleId": 8,
      "inputId": 2,
      "color": "#0986ad"
    },
    {
      "id": 85,
      "outputModuleId": 2,
      "outputId": 0,
      "inputModuleId": 8,
      "inputId": 3,
      "color": "#c9b70e"
    },
    {
      "id": 86,
      "outputModuleId": 21,
      "outputId": 1,
      "inputModuleId": 2,
      "inputId": 3,
      "color": "#0c8e15"
    },
    {
      "id": 87,
      "outputModuleId": 17,
      "outputId": 0,
      "inputModuleId": 3,
      "inputId": 1,
      "color": "#0986ad"
    },
    {
      "id": 88,
      "outputModuleId": 21,
      "outputId": 2,
      "inputModuleId": 18,
      "inputId": 0,
      "color": "#c9b70e"
    }
  ]
}